<svg viewBox="0 0 142 40" fill="none" xmlns="http://www.w3.org/2000/svg">
<g clip-path="url(#clip0_2078_83)">
<path fill-rule="evenodd" clip-rule="evenodd" d="M38.9912 13.4362C38.9912 6.02023 45.0107 0 52.4256 0C59.8615 0 65.8602 6.02023 65.8602 13.4362C65.8602 20.8521 59.8406 26.8723 52.4256 26.8723C45.0107 26.8723 38.9912 20.8521 38.9912 13.4362ZM47.0518 13.4362C47.0518 16.4151 49.468 18.8107 52.4256 18.8107C55.4042 18.8107 57.7994 16.3942 57.7994 13.4362C57.7994 10.4573 55.3833 8.06172 52.4256 8.06172C49.4471 8.06172 47.0518 10.4781 47.0518 13.4362Z" fill="#00BAD5"/>
<path d="M2.74938 0.604004H12.3306C13.8511 0.604004 15.0799 1.83305 15.0799 3.35373V4.58278C15.0799 6.10346 13.8511 7.33251 12.3306 7.33251H8.18565V10.1656H12.2264C13.7469 10.1656 14.9758 11.3946 14.9758 12.9153V13.7693C14.9758 15.29 13.7469 16.5191 12.2264 16.5191H8.18565V23.4351C8.18565 24.9558 6.95676 26.1848 5.43627 26.1848H2.74938C1.22889 26.1848 0 24.9558 0 23.4351V3.37456C0 1.85388 1.22889 0.604004 2.74938 0.604004Z" fill="#00BAD5"/>
<path d="M70.734 0.604004H73.2751C74.1707 0.604004 75.0039 1.04146 75.5246 1.74972L81.7733 10.4572V3.37456C81.7733 1.85388 83.0023 0.624835 84.5223 0.624835H87.0431C88.5631 0.624835 89.7922 1.85388 89.7922 3.37456V23.4768C89.7922 24.9974 88.5631 26.2265 87.0431 26.2265H84.4604C83.5647 26.2265 82.731 25.789 82.211 25.0808L76.0037 16.415V23.4768C76.0037 24.9974 74.7748 26.2265 73.2543 26.2265H70.734C69.2136 26.2265 67.9846 24.9974 67.9846 23.4768V3.37456C67.9846 1.85388 69.2136 0.604004 70.734 0.604004Z" fill="#00BAD5"/>
<path d="M104.809 0.604004H95.2283C93.7083 0.604004 92.4792 1.85388 92.4792 3.37456V23.4351C92.4792 24.9558 93.7083 26.1848 95.2283 26.1848H105.081C106.601 26.1848 107.83 24.9558 107.83 23.4351V22.2269C107.83 20.7062 106.601 19.4772 105.081 19.4772H100.665V16.5191H104.706C106.226 16.5191 107.455 15.29 107.455 13.7693V12.9153C107.455 11.3946 106.226 10.1656 104.706 10.1656H100.665V7.33251H104.809C106.33 7.33251 107.559 6.10346 107.559 4.58278V3.35373C107.559 1.83305 106.33 0.604004 104.809 0.604004Z" fill="#00BAD5"/>
<path d="M135.261 0.604004H138.428C139.948 0.604004 141.177 1.83305 141.177 3.35373V23.4559C141.177 24.9766 139.948 26.2056 138.428 26.2056H135.261C133.74 26.2056 132.511 24.9766 132.511 23.4559V3.37456C132.511 1.85388 133.74 0.604004 135.261 0.604004Z" fill="#00BAD5"/>
<path fill-rule="evenodd" clip-rule="evenodd" d="M126.971 17.8107C129.137 16.04 130.387 13.3319 130.387 10.2906C130.387 5.18688 126.534 0.666498 119.078 0.624835C119.035 0.604004 118.994 0.604004 118.973 0.604004H112.891C111.371 0.604004 110.142 1.83305 110.142 3.35373V23.4559C110.142 24.9766 111.371 26.2056 112.891 26.2056H115.557C117.078 26.2056 118.307 24.9766 118.307 23.4559V19.7271L121.347 24.8725C121.848 25.7057 122.743 26.2265 123.722 26.2265H128.054C129.699 26.2265 130.741 24.4558 129.929 23.0184L126.971 17.8107ZM119.473 13.2069H118.307V7.51999H119.473C121.035 7.51999 122.306 8.79066 122.306 10.353C122.326 11.9362 121.035 13.2069 119.473 13.2069Z" fill="#00BAD5"/>
<path fill-rule="evenodd" clip-rule="evenodd" d="M63.4233 27.6846C64.4855 26.8097 66.0269 26.8931 67.0266 27.8305L69.0887 29.7678C70.276 30.8927 70.2551 32.8092 69.0054 33.8715C58.591 42.6623 43.2404 41.85 33.7633 32.3717C31.8887 30.5177 27.7022 25.2682 25.3694 18.9564V23.4559C25.3694 24.9766 24.1405 26.2056 22.62 26.2056H19.9539C18.4335 26.2056 17.2046 24.9766 17.2046 23.4559V3.35373C17.2046 1.83305 18.4335 0.604004 19.9539 0.604004H26.0567C33.4926 0.645667 37.4708 5.18688 37.4708 10.2906C37.4708 13.3319 36.2211 16.0608 34.0549 17.8107C34.8047 19.8938 37.3042 24.1225 39.6786 26.4765C46.1147 32.8717 56.3207 33.4966 63.4233 27.6846ZM25.3902 13.2069H26.5566C28.1188 13.2069 29.3893 11.9362 29.3893 10.353C29.3893 8.79066 28.1188 7.51999 26.5566 7.51999H25.3902V13.2069Z" fill="#00BAD5"/>
</g>
<defs>
<clipPath id="clip0_2078_83">
<rect width="141.176" height="40" fill="white"/>
</clipPath>
</defs>
</svg>
