<svg  viewBox="0 0 350 157" fill="none" xmlns="http://www.w3.org/2000/svg">
<g filter="url(#filter0_d_0_1)">
<path d="M285.187 0.304607C274.636 1.24385 266.748 5.36889 261.815 9.35432C260.218 10.6363 259.736 10.7124 257.986 9.60817C255.056 7.78045 251.582 6.95545 247.181 7.56468C227.551 10.2682 215.542 11.6009 201.605 13.8094C198.448 14.3044 195.442 15.8275 193.071 17.7948C192.259 18.4802 191.562 18.7086 190.382 18.4802C182.939 17.0459 175.431 17.2363 166.618 18.8736C151.718 21.6533 138.656 24.0014 120.408 27.6949C116.045 28.5834 111.861 30.3222 109.413 33.8507C108.006 35.8815 107.524 36.0465 104.911 35.2469C94.944 32.2007 79.4349 31.3757 63.4693 34.5361C27.2773 41.7327 0.431267 69.2753 3.01822 98.6076C5.37692 125.224 29.0653 145.151 66.2338 141.851C95.2483 139.287 117.06 124.348 127.826 109.815C129.158 108.025 129.969 107.987 131.871 108.8C134.839 110.069 138.783 110.069 143.361 108.8C150.665 106.794 158.337 104.662 165.654 102.695C170.156 101.489 173.554 99.4453 175.926 96.5006C177.27 94.8252 177.79 94.749 179.756 95.5487C183.42 97.0337 186.895 96.5768 191.65 95.3583C198.727 93.5306 208.161 90.8905 213.602 89.5959C216.15 88.9867 217.431 88.2251 219.029 86.7147C220.348 85.4582 220.614 85.344 222.085 85.7755C223.899 86.3086 224.393 86.2451 227.5 85.5216C243.618 81.7647 259.583 78.5027 274.078 75.4565C278.491 74.53 281.433 72.6261 283.728 70.0115C284.984 68.5899 285.466 68.6407 286.886 68.9707C291.679 70.0623 298.603 70.6588 303.727 70.2019C325.957 68.2345 341.656 53.9809 340.02 35.4373C338.105 13.8347 316.408 -2.47504 285.187 0.291915V0.304607Z" fill="#00C0F3"/>
</g>
<path d="M287.152 3.8204C274.332 4.95003 266.178 10.1158 262.221 14.647C260.687 16.3986 259.305 16.4621 258.011 14.8374C255.665 11.9055 252 10.4712 248.094 11.017C228.603 13.6951 215.834 15.5482 202.341 17.7186C199.259 18.2136 197.053 19.5209 195.29 21.8437C194.288 23.151 193.578 23.2906 192.069 22.8717C187.517 21.6025 181.988 21.0821 175.267 21.666C172.844 21.8817 170.283 22.2371 167.632 22.7321C152.834 25.4864 139.366 28.1264 121.232 31.7945C116.223 32.8099 113.319 35.8688 111.709 39.8542C110.821 42.05 110.022 42.3293 107.993 41.4789C96.4531 36.6811 81.8698 35.653 66.4368 38.7119C33.2756 45.2993 8.35709 69.948 10.6904 96.2721C12.7194 119.296 34.8988 136.05 67.5147 133.156C95.9839 130.631 115.995 115.882 125.797 100.41C127.027 98.4679 128.524 98.3029 130.134 99.8641C133.292 102.948 137.806 103.913 142.41 102.631C149.004 100.791 157.209 98.7344 164.437 96.8052C170.143 95.2694 172.477 92.7944 173.656 88.9486C174.442 86.3593 175.875 85.9405 177.955 87.489C182.19 90.6367 185.094 91.3855 190.459 90.0274C198.207 88.0728 205.587 86.1055 212.752 84.392C214.768 83.9097 215.973 82.6912 216.873 81.2062C218.256 78.9089 219.207 78.8454 221.058 79.9496C222.669 80.9143 224.71 80.7747 226.625 80.3304C243.352 76.4085 260.852 72.7023 274.141 69.9099C278.326 69.0341 280.355 66.8637 281.585 64.4649C282.498 62.6752 283.272 62.3199 284.959 62.8149C289.511 64.1603 296.689 65.4041 304.754 64.6933C327.973 62.6372 336.875 46.8858 335.734 34.003C334.326 18.0359 315.102 1.37076 287.178 3.84578L287.152 3.8204Z" fill="#1D336F"/>
<path d="M211.851 69.5165L195.455 57.8014C194.364 57.0144 194.288 56.5194 195.353 55.6056C200.502 51.2013 202.569 45.1724 200.261 39.7781C195.861 29.4338 185.234 25.0549 166.592 28.5199C151.375 31.363 140.266 33.5715 123.21 37.0239C120.471 37.5823 119.14 39.6639 120.065 42.4435L135.384 88.8598C136.183 91.2713 137.895 92.2994 140.482 91.5887C147.241 89.7102 154.393 87.7555 161.393 85.8771C164.031 85.1663 165.248 83.0847 164.234 80.3685L151.793 46.8986C151.045 44.9059 151.92 43.5858 153.848 43.1797C157.322 42.4689 159.947 41.9485 164.069 41.1108C170.295 39.8543 174.556 41.4662 175.951 45.3247C177.447 49.4498 175.558 53.7398 169.661 54.9583C168.545 55.1867 167.188 55.4914 165.654 55.834C163.092 56.4052 162.281 58.7279 164.386 60.6318L183.649 78.0966C184.688 79.0358 186.134 79.4039 187.491 79.0485C195.569 77.005 204.116 74.9108 211.078 73.2481C213.132 72.7531 213.322 70.5954 211.801 69.5038L211.851 69.5165Z" fill="white"/>
<path d="M269.639 50.7824C268.815 49.0943 267.61 48.1678 265.226 48.6247C257.402 50.1478 249.806 51.6074 241.094 53.3717C240.016 53.5875 239.331 53.4225 238.773 52.1913L237.163 48.6882C236.77 47.8251 236.935 46.9747 238.177 46.7335C245.152 45.4008 251.023 44.3347 256.388 43.3447C258.784 42.9004 259.406 41.4408 258.378 39.3592L255.817 34.1553C254.993 32.4799 253.991 31.9215 251.607 32.3276C244.328 33.5842 238.368 34.5869 232.877 35.5261C231.811 35.7038 231.177 35.5388 230.619 34.333L229.301 31.4265C228.907 30.5634 229.085 29.6749 230.353 29.4718C238.634 28.1137 245.304 27.1745 253.23 25.9941C255.69 25.626 256.362 24.0649 255.322 21.9706L253.04 17.414C252.393 16.1067 251.176 15.2817 248.969 15.5863C229.795 18.2263 217.697 19.9906 203.837 22.1864C201.339 22.5798 200.109 24.5472 201.174 27.0222L218.648 68.2345C219.447 70.0876 220.969 70.9761 223.074 70.4938C238.342 67.0034 254.181 63.4876 270.337 60.0987C272.683 59.6037 273.279 58.1948 272.277 56.1386L269.627 50.7951L269.639 50.7824Z" fill="white"/>
<path d="M69.1757 45.2866C41.3405 50.8967 20.8731 71.433 22.7119 92.2613C24.5507 113.09 47.5163 124.881 75.7065 119.207C103.909 113.534 124.047 93.4671 122.17 72.2327C120.331 51.4932 97.0108 39.6766 69.1757 45.2866ZM76.6702 95.6375C65.9166 98.5822 55.4166 93.6575 53.2355 84.6586C51.0543 75.6596 57.9909 65.9626 68.7572 63.0306C79.5108 60.086 90.0108 65.0107 92.192 74.0096C94.3731 83.0212 87.4366 92.7056 76.6702 95.6375Z" fill="white"/>
<path d="M287.913 7.92008C270.489 9.46856 261.764 18.9625 262.715 29.8272C264.225 46.8351 285.478 57.3191 304.132 55.669C319.654 54.2983 330.864 44.7409 329.812 32.8353C328.34 16.1321 307.962 6.14314 287.913 7.92008ZM301.038 39.4354C293.518 40.0954 284.464 35.2088 283.842 28.1518C283.424 23.3922 287.304 19.8129 293.252 19.2925C300.797 18.6198 309.953 23.3414 310.574 30.4238C310.993 35.1834 306.985 38.915 301.038 39.4354Z" fill="white"/>
<defs>
<filter id="filter0_d_0_1" x="-2.15405" y="-2.01456" width="353.291" height="158.223" filterUnits="userSpaceOnUse" color-interpolation-filters="sRGB">
<feFlood flood-opacity="0" result="BackgroundImageFix"/>
<feColorMatrix in="SourceAlpha" type="matrix" values="0 0 0 0 0 0 0 0 0 0 0 0 0 0 0 0 0 0 127 0" result="hardAlpha"/>
<feOffset dx="3" dy="6"/>
<feGaussianBlur stdDeviation="4"/>
<feColorMatrix type="matrix" values="0 0 0 0 0.0230318 0 0 0 0 0.0651454 0 0 0 0 0.173438 0 0 0 0.4 0"/>
<feBlend mode="normal" in2="BackgroundImageFix" result="effect1_dropShadow_0_1"/>
<feBlend mode="normal" in="SourceGraphic" in2="effect1_dropShadow_0_1" result="shape"/>
</filter>
</defs>
</svg>
